<mxfile host="app.diagrams.net" modified="2022-11-17T12:35:14.281Z" agent="5.0 (Macintosh; Intel Mac OS X 10_15_7) AppleWebKit/537.36 (KHTML, like Gecko) Chrome/107.0.0.0 Safari/537.36" etag="ioMhiMyIgRD5aNHvTO4X" version="20.5.3" type="github">
  <diagram id="erSn2ZJzIVGId2-NjMvh" name="第 1 页">
    <mxGraphModel dx="1234" dy="740" grid="1" gridSize="10" guides="1" tooltips="1" connect="1" arrows="1" fold="1" page="1" pageScale="1" pageWidth="827" pageHeight="1169" math="0" shadow="0">
      <root>
        <mxCell id="0" />
        <mxCell id="1" parent="0" />
        <mxCell id="7pCLzzubviNgQuei55nn-2" value="" style="endArrow=none;html=1;rounded=0;dashed=1;fontFamily=source code pro;" edge="1" parent="1">
          <mxGeometry width="50" height="50" relative="1" as="geometry">
            <mxPoint x="390" y="486" as="sourcePoint" />
            <mxPoint x="390" y="206" as="targetPoint" />
          </mxGeometry>
        </mxCell>
        <mxCell id="7pCLzzubviNgQuei55nn-3" value="dashboard" style="rounded=0;whiteSpace=wrap;html=1;fontFamily=source code pro;" vertex="1" parent="1">
          <mxGeometry x="110" y="220" width="250" height="30" as="geometry" />
        </mxCell>
        <mxCell id="7pCLzzubviNgQuei55nn-5" value="node init" style="text;html=1;strokeColor=none;fillColor=none;align=center;verticalAlign=middle;whiteSpace=wrap;rounded=0;fontSize=16;fontFamily=source code pro;" vertex="1" parent="1">
          <mxGeometry x="196" y="170" width="105" height="30" as="geometry" />
        </mxCell>
        <mxCell id="7pCLzzubviNgQuei55nn-7" value="node operator" style="rounded=0;whiteSpace=wrap;html=1;fontFamily=source code pro;" vertex="1" parent="1">
          <mxGeometry x="262" y="330" width="70" height="70" as="geometry" />
        </mxCell>
        <mxCell id="7pCLzzubviNgQuei55nn-11" value="GPE" style="rounded=0;whiteSpace=wrap;html=1;fontFamily=source code pro;" vertex="1" parent="1">
          <mxGeometry x="110" y="330" width="70" height="70" as="geometry" />
        </mxCell>
        <mxCell id="7pCLzzubviNgQuei55nn-14" value="" style="endArrow=classic;html=1;rounded=0;curved=1;exitX=0.25;exitY=1;exitDx=0;exitDy=0;entryX=0.25;entryY=0;entryDx=0;entryDy=0;fontFamily=source code pro;" edge="1" parent="1" source="7pCLzzubviNgQuei55nn-3" target="7pCLzzubviNgQuei55nn-11">
          <mxGeometry width="50" height="50" relative="1" as="geometry">
            <mxPoint x="390" y="450" as="sourcePoint" />
            <mxPoint x="440" y="400" as="targetPoint" />
            <Array as="points">
              <mxPoint x="130" y="280" />
            </Array>
          </mxGeometry>
        </mxCell>
        <mxCell id="7pCLzzubviNgQuei55nn-15" value="① k8s=1.20.6" style="text;html=1;strokeColor=none;fillColor=none;align=center;verticalAlign=middle;whiteSpace=wrap;rounded=0;fontFamily=source code pro;" vertex="1" parent="1">
          <mxGeometry x="30" y="280" width="120" height="30" as="geometry" />
        </mxCell>
        <mxCell id="7pCLzzubviNgQuei55nn-16" value="" style="endArrow=classic;html=1;rounded=0;curved=1;entryX=0.25;entryY=1;entryDx=0;entryDy=0;exitX=0.5;exitY=0;exitDx=0;exitDy=0;dashed=1;fontFamily=source code pro;" edge="1" parent="1" source="7pCLzzubviNgQuei55nn-11" target="7pCLzzubviNgQuei55nn-3">
          <mxGeometry width="50" height="50" relative="1" as="geometry">
            <mxPoint x="390" y="440" as="sourcePoint" />
            <mxPoint x="440" y="390" as="targetPoint" />
            <Array as="points">
              <mxPoint x="173" y="300" />
            </Array>
          </mxGeometry>
        </mxCell>
        <mxCell id="7pCLzzubviNgQuei55nn-17" value="docker18.6/19.3" style="text;html=1;strokeColor=none;fillColor=none;align=center;verticalAlign=middle;whiteSpace=wrap;rounded=0;fontFamily=source code pro;" vertex="1" parent="1">
          <mxGeometry x="145" y="280" width="120" height="30" as="geometry" />
        </mxCell>
        <mxCell id="7pCLzzubviNgQuei55nn-19" value="" style="endArrow=classic;html=1;rounded=0;fontFamily=source code pro;fontSize=16;curved=1;exitX=0.75;exitY=1;exitDx=0;exitDy=0;entryX=0.5;entryY=0;entryDx=0;entryDy=0;" edge="1" parent="1" source="7pCLzzubviNgQuei55nn-3" target="7pCLzzubviNgQuei55nn-7">
          <mxGeometry width="50" height="50" relative="1" as="geometry">
            <mxPoint x="390" y="440" as="sourcePoint" />
            <mxPoint x="440" y="390" as="targetPoint" />
          </mxGeometry>
        </mxCell>
        <mxCell id="7pCLzzubviNgQuei55nn-20" value="② 18.6" style="text;html=1;strokeColor=none;fillColor=none;align=center;verticalAlign=middle;whiteSpace=wrap;rounded=0;fontFamily=source code pro;" vertex="1" parent="1">
          <mxGeometry x="301" y="280" width="50" height="30" as="geometry" />
        </mxCell>
        <mxCell id="7pCLzzubviNgQuei55nn-21" value="" style="endArrow=classic;html=1;rounded=0;curved=1;exitX=0;exitY=0.5;exitDx=0;exitDy=0;entryX=1;entryY=0.5;entryDx=0;entryDy=0;fontFamily=source code pro;" edge="1" parent="1" source="7pCLzzubviNgQuei55nn-7" target="7pCLzzubviNgQuei55nn-11">
          <mxGeometry width="50" height="50" relative="1" as="geometry">
            <mxPoint x="182.5" y="260" as="sourcePoint" />
            <mxPoint x="137.5" y="340" as="targetPoint" />
            <Array as="points">
              <mxPoint x="220" y="340" />
            </Array>
          </mxGeometry>
        </mxCell>
        <mxCell id="7pCLzzubviNgQuei55nn-22" value="" style="endArrow=classic;html=1;rounded=0;curved=1;entryX=0;entryY=0.75;entryDx=0;entryDy=0;exitX=1;exitY=0.75;exitDx=0;exitDy=0;dashed=1;fontFamily=source code pro;" edge="1" parent="1" source="7pCLzzubviNgQuei55nn-11" target="7pCLzzubviNgQuei55nn-7">
          <mxGeometry width="50" height="50" relative="1" as="geometry">
            <mxPoint x="155" y="340" as="sourcePoint" />
            <mxPoint x="182.5" y="260" as="targetPoint" />
            <Array as="points">
              <mxPoint x="220" y="400" />
            </Array>
          </mxGeometry>
        </mxCell>
        <mxCell id="7pCLzzubviNgQuei55nn-23" value="" style="endArrow=classic;html=1;rounded=0;fontFamily=source code pro;fontSize=16;curved=1;exitX=0.5;exitY=1;exitDx=0;exitDy=0;entryX=0.5;entryY=0;entryDx=0;entryDy=0;" edge="1" parent="1" source="7pCLzzubviNgQuei55nn-7" target="7pCLzzubviNgQuei55nn-24">
          <mxGeometry width="50" height="50" relative="1" as="geometry">
            <mxPoint x="297" y="450" as="sourcePoint" />
            <mxPoint x="297" y="460" as="targetPoint" />
          </mxGeometry>
        </mxCell>
        <mxCell id="7pCLzzubviNgQuei55nn-24" value="node" style="rounded=0;whiteSpace=wrap;html=1;fontFamily=source code pro;" vertex="1" parent="1">
          <mxGeometry x="262" y="440" width="70" height="40" as="geometry" />
        </mxCell>
        <mxCell id="7pCLzzubviNgQuei55nn-25" value="③ 18.6" style="text;html=1;strokeColor=none;fillColor=none;align=center;verticalAlign=middle;whiteSpace=wrap;rounded=0;fontFamily=source code pro;" vertex="1" parent="1">
          <mxGeometry x="196" y="331" width="50" height="30" as="geometry" />
        </mxCell>
        <mxCell id="7pCLzzubviNgQuei55nn-28" value="url/md5" style="text;html=1;strokeColor=none;fillColor=none;align=center;verticalAlign=middle;whiteSpace=wrap;rounded=0;fontFamily=source code pro;" vertex="1" parent="1">
          <mxGeometry x="196" y="390" width="50" height="30" as="geometry" />
        </mxCell>
        <mxCell id="7pCLzzubviNgQuei55nn-29" value="④ task" style="text;html=1;strokeColor=none;fillColor=none;align=center;verticalAlign=middle;whiteSpace=wrap;rounded=0;fontFamily=source code pro;" vertex="1" parent="1">
          <mxGeometry x="299" y="404" width="50" height="30" as="geometry" />
        </mxCell>
        <mxCell id="7pCLzzubviNgQuei55nn-30" value="dashboard" style="rounded=0;whiteSpace=wrap;html=1;fontFamily=source code pro;" vertex="1" parent="1">
          <mxGeometry x="490" y="220" width="250" height="30" as="geometry" />
        </mxCell>
        <mxCell id="7pCLzzubviNgQuei55nn-31" value="node upgrade" style="text;html=1;strokeColor=none;fillColor=none;align=center;verticalAlign=middle;whiteSpace=wrap;rounded=0;fontSize=16;fontFamily=source code pro;" vertex="1" parent="1">
          <mxGeometry x="553" y="170" width="124" height="30" as="geometry" />
        </mxCell>
        <mxCell id="7pCLzzubviNgQuei55nn-32" value="node operator" style="rounded=0;whiteSpace=wrap;html=1;fontFamily=source code pro;" vertex="1" parent="1">
          <mxGeometry x="642" y="330" width="70" height="70" as="geometry" />
        </mxCell>
        <mxCell id="7pCLzzubviNgQuei55nn-33" value="GPE" style="rounded=0;whiteSpace=wrap;html=1;fontFamily=source code pro;" vertex="1" parent="1">
          <mxGeometry x="490" y="330" width="70" height="70" as="geometry" />
        </mxCell>
        <mxCell id="7pCLzzubviNgQuei55nn-34" value="" style="endArrow=classic;html=1;rounded=0;curved=1;exitX=0.25;exitY=1;exitDx=0;exitDy=0;entryX=0.25;entryY=0;entryDx=0;entryDy=0;fontFamily=source code pro;" edge="1" source="7pCLzzubviNgQuei55nn-30" target="7pCLzzubviNgQuei55nn-33" parent="1">
          <mxGeometry width="50" height="50" relative="1" as="geometry">
            <mxPoint x="770" y="450" as="sourcePoint" />
            <mxPoint x="820" y="400" as="targetPoint" />
            <Array as="points">
              <mxPoint x="510" y="280" />
            </Array>
          </mxGeometry>
        </mxCell>
        <mxCell id="7pCLzzubviNgQuei55nn-35" value="" style="endArrow=classic;html=1;rounded=0;curved=1;entryX=0.25;entryY=1;entryDx=0;entryDy=0;exitX=0.5;exitY=0;exitDx=0;exitDy=0;dashed=1;fontFamily=source code pro;" edge="1" source="7pCLzzubviNgQuei55nn-33" target="7pCLzzubviNgQuei55nn-30" parent="1">
          <mxGeometry width="50" height="50" relative="1" as="geometry">
            <mxPoint x="770" y="440" as="sourcePoint" />
            <mxPoint x="820" y="390" as="targetPoint" />
            <Array as="points">
              <mxPoint x="553" y="300" />
            </Array>
          </mxGeometry>
        </mxCell>
        <mxCell id="7pCLzzubviNgQuei55nn-36" value="18.6.3-tke.4" style="text;html=1;strokeColor=none;fillColor=none;align=center;verticalAlign=middle;whiteSpace=wrap;rounded=0;fontFamily=source code pro;" vertex="1" parent="1">
          <mxGeometry x="525" y="280" width="120" height="30" as="geometry" />
        </mxCell>
        <mxCell id="7pCLzzubviNgQuei55nn-37" value="" style="endArrow=classic;html=1;rounded=0;fontFamily=source code pro;fontSize=16;curved=1;exitX=0.75;exitY=1;exitDx=0;exitDy=0;entryX=0.5;entryY=0;entryDx=0;entryDy=0;" edge="1" source="7pCLzzubviNgQuei55nn-30" target="7pCLzzubviNgQuei55nn-32" parent="1">
          <mxGeometry width="50" height="50" relative="1" as="geometry">
            <mxPoint x="770" y="440" as="sourcePoint" />
            <mxPoint x="820" y="390" as="targetPoint" />
          </mxGeometry>
        </mxCell>
        <mxCell id="7pCLzzubviNgQuei55nn-38" value="② 18.6.3-tke.4" style="text;html=1;strokeColor=none;fillColor=none;align=center;verticalAlign=middle;whiteSpace=wrap;rounded=0;fontFamily=source code pro;" vertex="1" parent="1">
          <mxGeometry x="681" y="280" width="109" height="30" as="geometry" />
        </mxCell>
        <mxCell id="7pCLzzubviNgQuei55nn-39" value="" style="endArrow=classic;html=1;rounded=0;curved=1;exitX=0;exitY=0.5;exitDx=0;exitDy=0;entryX=1;entryY=0.5;entryDx=0;entryDy=0;fontFamily=source code pro;" edge="1" source="7pCLzzubviNgQuei55nn-32" target="7pCLzzubviNgQuei55nn-33" parent="1">
          <mxGeometry width="50" height="50" relative="1" as="geometry">
            <mxPoint x="562.5" y="260" as="sourcePoint" />
            <mxPoint x="517.5" y="340" as="targetPoint" />
            <Array as="points">
              <mxPoint x="600" y="340" />
            </Array>
          </mxGeometry>
        </mxCell>
        <mxCell id="7pCLzzubviNgQuei55nn-40" value="" style="endArrow=classic;html=1;rounded=0;curved=1;entryX=0;entryY=0.75;entryDx=0;entryDy=0;exitX=1;exitY=0.75;exitDx=0;exitDy=0;dashed=1;fontFamily=source code pro;" edge="1" source="7pCLzzubviNgQuei55nn-33" target="7pCLzzubviNgQuei55nn-32" parent="1">
          <mxGeometry width="50" height="50" relative="1" as="geometry">
            <mxPoint x="535" y="340" as="sourcePoint" />
            <mxPoint x="562.5" y="260" as="targetPoint" />
            <Array as="points">
              <mxPoint x="600" y="400" />
            </Array>
          </mxGeometry>
        </mxCell>
        <mxCell id="7pCLzzubviNgQuei55nn-41" value="" style="endArrow=classic;html=1;rounded=0;fontFamily=source code pro;fontSize=16;curved=1;exitX=0.5;exitY=1;exitDx=0;exitDy=0;entryX=0.5;entryY=0;entryDx=0;entryDy=0;" edge="1" source="7pCLzzubviNgQuei55nn-32" target="7pCLzzubviNgQuei55nn-42" parent="1">
          <mxGeometry width="50" height="50" relative="1" as="geometry">
            <mxPoint x="677" y="450" as="sourcePoint" />
            <mxPoint x="677" y="460" as="targetPoint" />
          </mxGeometry>
        </mxCell>
        <mxCell id="7pCLzzubviNgQuei55nn-42" value="node" style="rounded=0;whiteSpace=wrap;html=1;fontFamily=source code pro;" vertex="1" parent="1">
          <mxGeometry x="642" y="440" width="70" height="40" as="geometry" />
        </mxCell>
        <mxCell id="7pCLzzubviNgQuei55nn-44" value="url/md5" style="text;html=1;strokeColor=none;fillColor=none;align=center;verticalAlign=middle;whiteSpace=wrap;rounded=0;fontFamily=source code pro;" vertex="1" parent="1">
          <mxGeometry x="576" y="390" width="50" height="30" as="geometry" />
        </mxCell>
        <mxCell id="7pCLzzubviNgQuei55nn-45" value="④ task" style="text;html=1;strokeColor=none;fillColor=none;align=center;verticalAlign=middle;whiteSpace=wrap;rounded=0;fontFamily=source code pro;" vertex="1" parent="1">
          <mxGeometry x="679" y="404" width="50" height="30" as="geometry" />
        </mxCell>
        <mxCell id="7pCLzzubviNgQuei55nn-46" value="① docker://18.6.3" style="text;html=1;strokeColor=none;fillColor=none;align=center;verticalAlign=middle;whiteSpace=wrap;rounded=0;fontFamily=source code pro;" vertex="1" parent="1">
          <mxGeometry x="386" y="280" width="139" height="30" as="geometry" />
        </mxCell>
        <mxCell id="7pCLzzubviNgQuei55nn-48" value="③ 18.6.3-tke.4" style="text;html=1;strokeColor=none;fillColor=none;align=center;verticalAlign=middle;whiteSpace=wrap;rounded=0;fontFamily=source code pro;" vertex="1" parent="1">
          <mxGeometry x="546.5" y="330" width="109" height="30" as="geometry" />
        </mxCell>
      </root>
    </mxGraphModel>
  </diagram>
</mxfile>
